REM DIRINDEX 1\2\3,1\2\4,1\2\5,1\2\6
REM DIRNAME folder01,folder02,folder03,folder04,folder05,folder06
TITLE ""
FILE "085 085.mp3" MP3
  TRACK 01 AUDIO
    TITLE "0:"
    INDEX 01 00:00:00
  TRACK 02 AUDIO
    TITLE "3:cjc157_3202"
    INDEX 01 00:00:11
  TRACK 03 AUDIO
    TITLE "0:"
    INDEX 01 00:01:38
  TRACK 04 AUDIO
    TITLE "4:cjc157_3203"
    INDEX 01 00:02:08
  TRACK 05 AUDIO
    TITLE "0:"
    INDEX 01 00:03:21
  TRACK 06 AUDIO
    TITLE "5:cjc157_3204"
    INDEX 01 00:03:68
  TRACK 07 AUDIO
    TITLE "0:"
    INDEX 01 00:05:61
  TRACK 08 AUDIO
    TITLE "3:cjc157_3205"
    INDEX 01 00:06:33
  TRACK 09 AUDIO
    TITLE "0:"
    INDEX 01 00:07:56
  TRACK 10 AUDIO
    TITLE "4:cjc157_3206"
    INDEX 01 00:08:28
  TRACK 11 AUDIO
    TITLE "0:"
    INDEX 01 00:09:63
  TRACK 12 AUDIO
    TITLE "5:cjc157_3207"
    INDEX 01 00:10:29
  TRACK 13 AUDIO
    TITLE "0:"
    INDEX 01 00:12:30
  TRACK 14 AUDIO
    TITLE "3:cjc157_3208"
    INDEX 01 00:13:00
  TRACK 15 AUDIO
    TITLE "0:"
    INDEX 01 00:14:09
  TRACK 16 AUDIO
    TITLE "4:cjc157_3209"
    INDEX 01 00:14:53
  TRACK 17 AUDIO
    TITLE "0:"
    INDEX 01 00:15:60
  TRACK 18 AUDIO
    TITLE "5:cjc157_3210"
    INDEX 01 00:16:40
  TRACK 19 AUDIO
    TITLE "0:"
    INDEX 01 00:18:46
  TRACK 20 AUDIO
    TITLE "5:cjc157_3211"
    INDEX 01 00:19:16
  TRACK 21 AUDIO
    TITLE "0:"
    INDEX 01 00:21:15
  TRACK 22 AUDIO
    TITLE "5:cjc157_3212"
    INDEX 01 00:21:57
  TRACK 23 AUDIO
    TITLE "0:"
    INDEX 01 00:23:51
  TRACK 24 AUDIO
    TITLE "3:cjc157_3213"
    INDEX 01 00:24:20
  TRACK 25 AUDIO
    TITLE "0:"
    INDEX 01 00:25:33
  TRACK 26 AUDIO
    TITLE "4:cjc157_3214"
    INDEX 01 00:25:74
  TRACK 27 AUDIO
    TITLE "0:"
    INDEX 01 00:27:26
  TRACK 28 AUDIO
    TITLE "5:cjc157_3215"
    INDEX 01 00:27:67
  TRACK 29 AUDIO
    TITLE "0:"
    INDEX 01 00:30:55
  TRACK 30 AUDIO
    TITLE "3:cjc157_3216"
    INDEX 01 00:31:26
  TRACK 31 AUDIO
    TITLE "0:"
    INDEX 01 00:32:21
  TRACK 32 AUDIO
    TITLE "4:cjc157_3217"
    INDEX 01 00:32:66
  TRACK 33 AUDIO
    TITLE "0:"
    INDEX 01 00:36:17
  TRACK 34 AUDIO
    TITLE "5:cjc157_3218"
    INDEX 01 00:36:60
  TRACK 35 AUDIO
    TITLE "0:"
    INDEX 01 00:38:41
  TRACK 36 AUDIO
    TITLE "5:cjc157_3219"
    INDEX 01 00:39:13
  TRACK 37 AUDIO
    TITLE "0:"
    INDEX 01 00:41:26
  TRACK 38 AUDIO
    TITLE "3:cjc157_3220"
    INDEX 01 00:41:71
  TRACK 39 AUDIO
    TITLE "0:"
    INDEX 01 00:43:19
  TRACK 40 AUDIO
    TITLE "4:cjc157_3221"
    INDEX 01 00:43:66
  TRACK 41 AUDIO
    TITLE "0:"
    INDEX 01 00:45:10
  TRACK 42 AUDIO
    TITLE "5:cjc157_3222"
    INDEX 01 00:45:55
  TRACK 43 AUDIO
    TITLE "0:"
    INDEX 01 00:47:74
  TRACK 44 AUDIO
    TITLE "5:cjc157_3223"
    INDEX 01 00:48:44
  TRACK 45 AUDIO
    TITLE "0:"
    INDEX 01 00:50:23
  TRACK 46 AUDIO
    TITLE "3:cjc157_3224"
    INDEX 01 00:50:72
  TRACK 47 AUDIO
    TITLE "0:"
    INDEX 01 00:52:22
  TRACK 48 AUDIO
    TITLE "4:cjc157_3225"
    INDEX 01 00:52:69
  TRACK 49 AUDIO
    TITLE "0:"
    INDEX 01 00:54:15
  TRACK 50 AUDIO
    TITLE "5:cjc157_3226"
    INDEX 01 00:54:60
  TRACK 51 AUDIO
    TITLE "0:"
    INDEX 01 00:57:11
  TRACK 52 AUDIO
    TITLE "5:cjc157_3227"
    INDEX 01 00:57:60
  TRACK 53 AUDIO
    TITLE "0:"
    INDEX 01 00:59:57
  TRACK 54 AUDIO
    TITLE "5:cjc157_3228"
    INDEX 01 01:00:27
  TRACK 55 AUDIO
    TITLE "0:"
    INDEX 01 01:03:06
  TRACK 56 AUDIO
    TITLE "3:cjc157_3229"
    INDEX 01 01:03:49
  TRACK 57 AUDIO
    TITLE "0:"
    INDEX 01 01:04:58
  TRACK 58 AUDIO
    TITLE "4:cjc157_3230"
    INDEX 01 01:05:32
  TRACK 59 AUDIO
    TITLE "0:"
    INDEX 01 01:06:47
  TRACK 60 AUDIO
    TITLE "5:cjc157_3231"
    INDEX 01 01:07:19
  TRACK 61 AUDIO
    TITLE "0:"
    INDEX 01 01:09:54
  TRACK 62 AUDIO
    TITLE "3:cjc157_3232"
    INDEX 01 01:10:30
  TRACK 63 AUDIO
    TITLE "0:"
    INDEX 01 01:11:43
  TRACK 64 AUDIO
    TITLE "4:cjc157_3233"
    INDEX 01 01:12:15
  TRACK 65 AUDIO
    TITLE "0:"
    INDEX 01 01:13:32
  TRACK 66 AUDIO
    TITLE "5:cjc157_3234"
    INDEX 01 01:14:00
  TRACK 67 AUDIO
    TITLE "0:"
    INDEX 01 01:15:60
  TRACK 68 AUDIO
    TITLE "5:cjc157_3235"
    INDEX 01 01:16:28
  TRACK 69 AUDIO
    TITLE "0:"
    INDEX 01 01:18:58
  TRACK 70 AUDIO
    TITLE "3:cjc157_3236"
    INDEX 01 01:19:28
  TRACK 71 AUDIO
    TITLE "0:"
    INDEX 01 01:20:48
  TRACK 72 AUDIO
    TITLE "4:cjc157_3237"
    INDEX 01 01:21:20
  TRACK 73 AUDIO
    TITLE "0:"
    INDEX 01 01:22:42
  TRACK 74 AUDIO
    TITLE "5:cjc157_3238"
    INDEX 01 01:23:18
  TRACK 75 AUDIO
    TITLE "0:"
    INDEX 01 01:25:43
  TRACK 76 AUDIO
    TITLE "5:cjc157_3239"
    INDEX 01 01:26:09
  TRACK 77 AUDIO
    TITLE "0:"
    INDEX 01 01:28:33
  TRACK 78 AUDIO
    TITLE "5:cjc157_3240"
    INDEX 01 01:29:03
  TRACK 79 AUDIO
    TITLE "0:"
    INDEX 01 01:30:66
